<svg xmlns="http://www.w3.org/2000/svg">
  <symbol id="logo" viewBox="0 0 1024 1024">
    <path d="M512.2 0A510 510 0 0 0 150 149.8 507.8 507.8 0 0 0 0 511.9a509.6 509.6 0 0 0 150 362A507.8 507.8 0 0 0 511 1023.7H540.8v-3a508.2 508.2 0 0 0 483.2-509v.1a509 509 0 0 0-150-362A507.8 507.8 0 0 0 513 0h-1zm0 57.3a451.8 451.8 0 0 1 321.2 133A449.2 449.2 0 0 1 966.7 512 450.9 450.9 0 0 1 833.4 833 449.5 449.5 0 0 1 512 966h-2a449.4 449.4 0 0 1-319.4-132.6 449.8 449.8 0 0 1-133-322v.1a450 450 0 0 1 133-321.2A449.5 449.5 0 0 1 512.1 57z"/><path d="m571.3 261.4-2.5-.1c-15 0-27.2 11.4-28.6 26l-.1 2.6c0 15 11.5 27.3 26.2 28.5h.1c72 6.2 138 35.4 191.3 84.9a321.4 321.4 0 0 1 104 224.8v.6a320.9 320.9 0 0 1-85.4 233A320.2 320.2 0 0 1 552.1 966h-15.7c-174 0-315.9-138-322-310.5v-.6a322.9 322.9 0 0 1 85.8-233c3-3.7 6.7-7 10-10.4a28.6 28.6 0 0 0 .6-40.6 28.6 28.6 0 0 0-40.8-.6A379.5 379.5 0 0 0 157 658.1v-.8A380.5 380.5 0 0 0 537.2 1024H553.6A380.5 380.5 0 0 0 919 626v.8a380.9 380.9 0 0 0-346.2-365.3h-1.5z"/>
  </symbol>
  <symbol id="tick" viewBox="0 0 1024 1024">
    <path fill="none" stroke="currentColor" stroke-linecap="round" stroke-linejoin="round" stroke-width="139.64" d="m73.46 512 292.01 292.36 585.07-584.72"/>
  </symbol>
</svg>