<svg xmlns="http://www.w3.org/2000/svg">
  <symbol id="tick" viewBox="0 0 1024 1024">
    <path fill="none" stroke="currentColor" stroke-linecap="round" stroke-linejoin="round" stroke-width="139.64" d="m73.46 512 292.01 292.36 585.07-584.72"/>
  </symbol>
  <symbol id="user" viewBox="0 0 1024 1024">
    <path fill="currentColor" d="M512 0c282.6 0 512 229.4 512 512s-229.4 512-512 512S0 794.6 0 512 229.4 0 512 0zm346.8 828.2c-12-17.1-33-28-69.3-36.3-164.2-38.7-174.8-64-185.7-87.9-11-24-8.1-52.4 8.7-84.3 73.7-139 89.2-257 43.8-332.4-28.7-47.7-80-74-144.3-74-64.9 0-116.6 26.7-145.5 75.3-45.4 76.3-29.5 193.8 44.8 331 17.2 31.6 20.3 60 9.4 84.1-11.3 25-26 50.8-186.2 88.2-36.4 8.4-57.3 19.1-69.3 36.2 85.9 94.1 209.5 153.2 346.8 153.2s261-59 346.8-153.1zm27.7-33.4A469.6 469.6 0 0 0 512 42.7 469.6 469.6 0 0 0 42.7 512c0 106.1 35.3 204 94.8 282.7 17.4-19.3 44.7-34.6 87.4-44.4 86.4-19.7 144-35.7 157-64 5.1-11.7 2.5-26.9-8.1-46.5-81.8-150.8-97.4-283.3-44-373 36.5-61.1 102.8-96.1 182.2-96.1 78.7 0 144.7 34.4 181 94.6C746.2 354 731 487 650.1 639.7c-10.4 19.7-13 35-7.6 46.6 13 28.5 70.1 44.3 156.5 64 42.6 9.8 70 25.2 87.4 44.5z"/>
  </symbol>
</svg>